<?xml version="1.0" standalone="no"?>
<!DOCTYPE svg PUBLIC "-//W3C//DTD SVG 20010904//EN"
 "http://www.w3.org/TR/2001/REC-SVG-20010904/DTD/svg10.dtd">
<svg version="1.0" xmlns="http://www.w3.org/2000/svg"
 width="512.000000pt" height="512.000000pt" viewBox="0 0 512.000000 512.000000"
 preserveAspectRatio="xMidYMid meet">

<g transform="translate(0.000000,512.000000) scale(0.100000,-0.100000)"
fill="#000000" stroke="none">
<path d="M2361 5110 c-442 -37 -865 -184 -1222 -426 -164 -110 -242 -175 -394
-328 -401 -404 -644 -897 -721 -1466 -23 -169 -23 -491 0 -660 99 -727 488
-1362 1090 -1778 752 -521 1743 -593 2572 -187 675 331 1173 948 1354 1675
221 892 -48 1828 -707 2461 -395 378 -902 624 -1433 693 -148 19 -406 27 -539
16z m-899 -1721 c141 -29 295 -136 376 -261 82 -126 90 -172 115 -600 l22
-380 143 373 c160 417 208 523 283 622 115 153 305 257 468 257 44 0 51 -3 56
-22 5 -22 105 -800 140 -1083 9 -71 17 -130 18 -132 2 -1 56 165 121 370 128
402 167 496 260 613 121 155 330 263 488 252 l46 -3 -292 -710 c-161 -390
-302 -729 -314 -752 -12 -23 -45 -69 -73 -103 -124 -149 -308 -246 -505 -266
-60 -6 -63 -6 -68 17 -3 13 -37 258 -76 544 -39 286 -74 533 -78 549 -6 25
-24 -14 -125 -280 -65 -170 -138 -350 -163 -399 -109 -225 -292 -376 -506
-419 -112 -23 -146 -21 -153 7 -6 29 -295 1800 -295 1810 0 10 51 9 112 -4z"/>
</g>
</svg>
